<svg id="svg" xmlns="http://www.w3.org/2000/svg" xmlns:xlink="http://www.w3.org/1999/xlink" width="400" height="340.5" viewBox="0, 0, 400,340.5"><g id="svgg"><path id="path0" d="M-0.000 12.163 L -0.000 24.325 9.750 29.718 L 19.500 35.111 19.500 45.938 L 19.500 56.764 11.625 61.219 C 7.294 63.669,2.908 66.141,1.879 66.712 L 0.008 67.750 0.004 80.002 L -0.000 92.254 9.760 97.672 L 19.519 103.091 19.385 113.891 L 19.250 124.692 9.624 130.221 L -0.002 135.750 0.124 147.987 L 0.250 160.223 9.750 165.500 L 19.250 170.776 19.385 181.559 L 19.519 192.342 9.760 197.956 L 0.000 203.571 0.000 215.730 L 0.000 227.889 9.750 233.282 L 19.500 238.675 19.485 249.462 L 19.470 260.250 9.752 265.750 L 0.034 271.250 0.033 283.500 L 0.031 295.750 9.641 301.041 L 19.250 306.332 19.382 317.291 L 19.514 328.250 9.757 333.682 C 4.385 336.672,-0.000 339.425,-0.000 339.807 C 0.000 340.823,-0.277 340.953,10.369 334.946 C 17.721 330.796,20.406 329.511,20.981 329.864 C 26.052 332.977,39.492 340.500,39.982 340.500 C 40.335 340.500,45.000 337.982,50.350 334.904 C 58.078 330.459,60.250 329.414,60.914 329.822 C 66.323 333.147,79.505 340.498,80.046 340.492 C 80.433 340.487,84.999 338.012,90.193 334.992 C 95.386 331.971,99.800 329.500,100.000 329.500 C 100.200 329.500,104.614 331.971,109.807 334.992 C 115.001 338.012,119.588 340.483,120.000 340.483 C 120.412 340.483,124.999 338.012,130.193 334.992 C 135.386 331.971,139.800 329.500,140.000 329.500 C 140.200 329.500,144.614 331.971,149.807 334.992 C 155.001 338.012,159.588 340.483,160.000 340.483 C 160.412 340.483,164.999 338.012,170.193 334.992 C 175.386 331.971,179.800 329.500,180.000 329.500 C 180.200 329.500,184.614 331.971,189.807 334.992 C 195.001 338.012,199.567 340.487,199.954 340.492 C 200.495 340.498,213.677 333.147,219.086 329.822 C 219.750 329.414,221.922 330.459,229.650 334.904 C 235.000 337.982,239.665 340.500,240.018 340.500 C 240.511 340.500,254.032 332.928,259.086 329.822 C 259.750 329.414,261.922 330.459,269.650 334.904 C 275.000 337.982,279.654 340.500,279.993 340.500 C 280.469 340.500,294.292 332.769,299.086 329.822 C 299.750 329.414,301.921 330.458,309.650 334.904 C 315.000 337.982,319.654 340.500,319.993 340.500 C 320.469 340.500,334.292 332.769,339.086 329.822 C 339.750 329.414,341.921 330.458,349.650 334.904 C 355.000 337.982,359.657 340.500,360.000 340.500 C 360.343 340.500,364.903 338.025,370.134 335.000 C 375.365 331.975,379.784 329.500,379.954 329.500 C 380.124 329.500,384.648 331.956,390.007 334.958 C 395.366 337.960,399.832 340.190,399.931 339.914 C 400.221 339.111,399.639 338.725,389.952 333.304 L 380.750 328.154 380.628 317.452 L 380.505 306.750 390.253 301.022 L 400.000 295.294 400.000 283.211 L 400.000 271.128 390.258 265.689 L 380.515 260.250 380.508 249.657 L 380.500 239.064 390.250 233.269 L 400.000 227.474 399.989 215.362 L 399.978 203.250 390.239 197.839 L 380.500 192.429 380.500 181.828 L 380.500 171.226 390.256 165.488 L 400.013 159.750 399.881 147.591 L 399.750 135.433 390.250 130.091 L 380.750 124.749 380.750 114.026 L 380.750 103.303 390.250 97.691 L 399.750 92.079 399.750 79.738 L 399.750 67.397 390.126 62.074 L 380.503 56.750 380.626 46.041 L 380.750 35.333 390.250 29.717 L 399.750 24.102 399.884 12.051 L 400.018 0.000 398.634 0.015 C 397.452 0.028,397.378 0.105,398.125 0.540 C 398.916 1.001,399.000 2.095,399.000 11.924 L 399.000 22.798 389.774 28.149 C 384.699 31.092,380.303 33.500,380.005 33.500 C 379.706 33.500,375.308 31.105,370.231 28.179 L 361.000 22.858 361.000 11.954 C 361.000 2.096,361.084 1.001,361.875 0.540 C 362.545 0.150,362.107 0.030,360.000 0.030 C 357.893 0.030,357.455 0.150,358.125 0.540 C 358.916 1.001,359.000 2.095,359.000 11.924 L 359.000 22.798 349.774 28.149 C 344.699 31.092,340.303 33.500,340.005 33.500 C 339.706 33.500,335.308 31.105,330.231 28.179 L 321.000 22.858 321.000 11.954 C 321.000 2.096,321.084 1.001,321.875 0.540 C 322.545 0.150,322.107 0.030,320.000 0.030 C 317.893 0.030,317.455 0.150,318.125 0.540 C 318.916 1.001,319.000 2.095,319.000 11.924 L 319.000 22.798 309.774 28.149 C 304.699 31.092,300.303 33.500,300.005 33.500 C 299.706 33.500,295.308 31.105,290.231 28.179 L 281.000 22.858 281.000 11.954 C 281.000 2.096,281.084 1.001,281.875 0.540 C 282.545 0.150,282.107 0.030,280.000 0.030 C 277.893 0.030,277.455 0.150,278.125 0.540 C 278.916 1.001,279.000 2.096,279.000 11.949 L 279.000 22.848 269.754 28.174 C 264.669 31.103,260.273 33.500,259.985 33.500 C 259.697 33.500,255.308 31.105,250.231 28.179 L 241.000 22.858 241.000 11.954 C 241.000 2.096,241.084 1.001,241.875 0.540 C 242.545 0.150,242.107 0.030,240.000 0.030 C 237.893 0.030,237.455 0.150,238.125 0.540 C 238.916 1.001,239.000 2.096,239.000 11.949 L 239.000 22.848 229.754 28.174 C 224.669 31.103,220.273 33.500,219.985 33.500 C 219.697 33.500,215.308 31.105,210.231 28.179 L 201.000 22.858 201.000 11.954 C 201.000 2.096,201.084 1.001,201.875 0.540 C 202.545 0.150,202.107 0.030,200.000 0.030 C 197.893 0.030,197.455 0.150,198.125 0.540 C 198.916 1.001,199.000 2.096,199.000 11.954 L 199.000 22.858 189.769 28.179 C 184.692 31.105,180.296 33.500,180.000 33.500 C 179.704 33.500,175.308 31.105,170.231 28.179 L 161.000 22.858 161.000 11.954 C 161.000 2.096,161.084 1.001,161.875 0.540 C 162.545 0.150,162.107 0.030,160.000 0.030 C 157.893 0.030,157.455 0.150,158.125 0.540 C 158.916 1.001,159.000 2.096,159.000 11.954 L 159.000 22.858 149.769 28.179 C 144.692 31.105,140.296 33.500,140.000 33.500 C 139.704 33.500,135.308 31.105,130.231 28.179 L 121.000 22.858 121.000 11.954 C 121.000 2.096,121.084 1.001,121.875 0.540 C 122.545 0.150,122.107 0.030,120.000 0.030 C 117.893 0.030,117.455 0.150,118.125 0.540 C 118.916 1.001,119.000 2.096,119.000 11.954 L 119.000 22.858 109.769 28.179 C 104.692 31.105,100.296 33.500,100.000 33.500 C 99.704 33.500,95.308 31.105,90.231 28.179 L 81.000 22.858 81.000 11.954 C 81.000 2.096,81.084 1.001,81.875 0.540 C 82.545 0.150,82.107 0.030,80.000 0.030 C 77.893 0.030,77.455 0.150,78.125 0.540 C 78.916 1.001,79.000 2.096,79.000 11.954 L 79.000 22.858 69.769 28.179 C 64.692 31.105,60.296 33.500,60.000 33.500 C 59.704 33.500,55.308 31.105,50.231 28.179 L 41.000 22.858 41.000 11.954 C 41.000 2.096,41.084 1.001,41.875 0.540 C 42.545 0.150,42.107 0.030,40.000 0.030 C 37.893 0.030,37.455 0.150,38.125 0.540 C 38.916 1.001,39.000 2.096,39.000 11.954 L 39.000 22.858 29.769 28.179 C 24.692 31.105,20.303 33.500,20.015 33.500 C 19.727 33.500,15.331 31.103,10.246 28.174 L 1.000 22.848 1.000 11.949 C 1.000 2.096,1.084 1.001,1.875 0.540 C 2.623 0.104,2.551 0.028,1.375 0.015 L 0.000 0.000 -0.000 12.163 M49.772 29.809 L 59.000 35.118 59.000 46.010 L 59.000 56.901 49.521 62.397 L 40.042 67.893 30.521 62.409 L 21.000 56.924 21.000 46.034 L 21.000 35.143 30.125 29.847 C 35.144 26.935,39.541 24.540,39.897 24.526 C 40.252 24.512,44.696 26.889,49.772 29.809 M89.772 29.809 L 99.000 35.118 99.000 46.010 L 99.000 56.901 89.521 62.397 L 80.042 67.893 70.521 62.409 L 61.000 56.924 61.000 46.034 L 61.000 35.143 70.125 29.847 C 75.144 26.935,79.541 24.540,79.897 24.526 C 80.252 24.512,84.696 26.889,89.772 29.809 M129.772 29.809 L 139.000 35.118 139.000 46.010 L 139.000 56.901 129.500 62.409 L 120.000 67.918 110.500 62.409 L 101.000 56.901 101.000 46.010 L 101.000 35.119 110.125 29.835 C 115.144 26.928,119.541 24.539,119.897 24.525 C 120.252 24.511,124.696 26.889,129.772 29.809 M169.772 29.809 L 179.000 35.118 179.000 46.010 L 179.000 56.901 169.500 62.409 L 160.000 67.918 150.500 62.409 L 141.000 56.901 141.000 46.010 L 141.000 35.119 150.125 29.835 C 155.144 26.928,159.541 24.539,159.897 24.525 C 160.252 24.511,164.696 26.889,169.772 29.809 M209.769 29.821 L 219.000 35.142 219.000 46.033 L 219.000 56.924 209.479 62.409 L 199.958 67.893 190.479 62.397 L 181.000 56.901 181.000 46.010 L 181.000 35.119 190.125 29.835 C 195.144 26.928,199.540 24.539,199.894 24.525 C 200.249 24.511,204.692 26.895,209.769 29.821 M249.769 29.821 L 259.000 35.142 259.000 46.033 L 259.000 56.924 249.479 62.409 L 239.958 67.893 230.479 62.397 L 221.000 56.901 221.000 46.010 L 221.000 35.119 230.125 29.835 C 235.144 26.928,239.540 24.539,239.894 24.525 C 240.249 24.511,244.692 26.895,249.769 29.821 M289.769 29.821 L 299.000 35.142 299.000 46.033 L 299.000 56.924 289.479 62.409 L 279.958 67.893 270.479 62.397 L 261.000 56.901 261.000 46.019 L 261.000 35.137 270.125 29.834 C 275.144 26.917,279.540 24.524,279.894 24.515 C 280.249 24.507,284.692 26.895,289.769 29.821 M329.769 29.821 L 339.000 35.142 339.000 46.033 L 339.000 56.924 329.479 62.409 L 319.957 67.894 310.604 62.481 L 301.250 57.069 301.116 46.109 L 300.981 35.148 310.116 29.839 C 315.140 26.920,319.540 24.524,319.894 24.515 C 320.249 24.507,324.692 26.895,329.769 29.821 M369.769 29.821 L 379.000 35.142 379.000 46.026 L 379.000 56.910 369.474 62.399 L 359.947 67.888 350.599 62.479 L 341.250 57.069 341.116 46.109 L 340.981 35.148 350.116 29.839 C 355.140 26.920,359.540 24.524,359.894 24.515 C 360.249 24.507,364.692 26.895,369.769 29.821 M38.884 79.840 L 39.019 90.788 29.783 96.144 C 24.704 99.090,20.301 101.500,20.000 101.500 C 19.699 101.500,15.296 99.090,10.217 96.144 L 0.981 90.788 1.116 79.825 L 1.250 68.863 10.671 63.479 L 20.093 58.095 29.421 63.494 L 38.750 68.892 38.884 79.840 M69.339 63.446 L 78.750 68.892 78.884 79.840 L 79.019 90.788 69.783 96.144 C 64.704 99.090,60.301 101.500,60.000 101.500 C 59.699 101.500,55.296 99.090,50.217 96.144 L 40.981 90.788 41.116 79.841 L 41.250 68.894 50.500 63.493 C 55.587 60.522,59.790 58.070,59.839 58.045 C 59.888 58.020,64.163 60.451,69.339 63.446 M109.320 63.448 L 118.750 68.896 118.884 79.842 L 119.019 90.788 109.783 96.144 C 104.704 99.090,100.310 101.500,100.020 101.500 C 99.729 101.500,95.327 99.101,90.237 96.169 L 80.981 90.838 81.116 79.866 L 81.250 68.894 90.500 63.493 C 95.588 60.522,99.782 58.070,99.820 58.045 C 99.859 58.020,104.134 60.452,109.320 63.448 M149.320 63.448 L 158.750 68.896 158.884 79.842 L 159.019 90.788 149.783 96.144 C 144.704 99.090,140.310 101.500,140.020 101.500 C 139.729 101.500,135.327 99.101,130.237 96.169 L 120.981 90.838 121.116 79.866 L 121.250 68.894 130.500 63.493 C 135.588 60.522,139.782 58.070,139.820 58.045 C 139.859 58.020,144.134 60.452,149.320 63.448 M189.320 63.448 L 198.750 68.896 198.884 79.842 L 199.019 90.788 189.783 96.144 C 184.704 99.090,180.310 101.500,180.020 101.500 C 179.729 101.500,175.327 99.101,170.237 96.169 L 160.981 90.838 161.116 79.866 L 161.250 68.894 170.500 63.493 C 175.588 60.522,179.782 58.070,179.820 58.045 C 179.859 58.020,184.134 60.452,189.320 63.448 M229.320 63.448 L 238.750 68.896 238.884 79.842 L 239.019 90.788 229.783 96.144 C 224.704 99.090,220.310 101.500,220.020 101.500 C 219.729 101.500,215.327 99.101,210.237 96.169 L 200.981 90.838 201.116 79.864 L 201.250 68.890 210.500 63.486 C 215.588 60.513,219.782 58.063,219.820 58.041 C 219.859 58.018,224.134 60.452,229.320 63.448 M269.320 63.448 L 278.750 68.896 278.884 79.842 L 279.019 90.788 269.783 96.144 C 264.704 99.090,260.310 101.500,260.020 101.500 C 259.729 101.500,255.327 99.101,250.237 96.169 L 240.981 90.838 241.116 79.864 L 241.250 68.890 250.500 63.486 C 255.588 60.513,259.782 58.063,259.820 58.041 C 259.859 58.018,264.134 60.452,269.320 63.448 M309.458 63.540 L 319.000 69.081 319.000 79.942 L 319.000 90.804 309.746 96.152 C 304.656 99.093,300.267 101.500,299.992 101.500 C 299.717 101.500,295.327 99.101,290.237 96.169 L 280.981 90.838 281.116 79.864 L 281.250 68.890 290.500 63.486 C 295.587 60.513,299.787 58.063,299.833 58.041 C 299.879 58.018,304.210 60.493,309.458 63.540 M349.458 63.540 L 359.000 69.081 359.000 79.942 L 359.000 90.804 349.746 96.152 C 344.656 99.093,340.267 101.500,339.992 101.500 C 339.717 101.500,335.327 99.101,330.237 96.169 L 320.981 90.838 321.116 79.864 L 321.250 68.890 330.500 63.486 C 335.587 60.513,339.787 58.063,339.833 58.041 C 339.879 58.018,344.210 60.493,349.458 63.540 M389.458 63.540 L 399.000 69.081 399.000 79.942 L 399.000 90.804 389.746 96.152 C 384.656 99.093,380.267 101.500,379.992 101.500 C 379.717 101.500,375.327 99.101,370.237 96.169 L 360.981 90.838 361.116 79.864 L 361.250 68.890 370.500 63.486 C 375.587 60.513,379.787 58.063,379.833 58.041 C 379.879 58.018,384.210 60.493,389.458 63.540 M49.798 97.798 L 59.000 103.096 59.000 113.947 L 59.000 124.798 49.774 130.149 C 44.699 133.092,40.310 135.500,40.020 135.500 C 39.729 135.500,35.331 133.103,30.246 130.174 L 21.000 124.848 21.000 113.993 L 21.000 103.137 30.125 97.834 C 35.144 94.917,39.553 92.524,39.923 92.515 C 40.294 92.507,44.737 94.884,49.798 97.798 M89.798 97.798 L 99.000 103.096 99.000 113.947 L 99.000 124.798 89.774 130.149 C 84.699 133.092,80.310 135.500,80.020 135.500 C 79.729 135.500,75.331 133.103,70.246 130.174 L 61.000 124.848 61.000 113.993 L 61.000 103.137 70.125 97.834 C 75.144 94.917,79.553 92.524,79.923 92.515 C 80.294 92.507,84.737 94.884,89.798 97.798 M129.798 97.798 L 139.000 103.096 139.000 113.947 L 139.000 124.798 129.774 130.149 C 124.699 133.092,120.310 135.500,120.020 135.500 C 119.729 135.500,115.331 133.103,110.246 130.174 L 101.000 124.848 101.000 113.993 L 101.000 103.137 110.125 97.834 C 115.144 94.917,119.553 92.524,119.923 92.515 C 120.294 92.507,124.737 94.884,129.798 97.798 M169.809 97.817 L 179.000 103.135 179.000 113.966 L 179.000 124.798 169.774 130.149 C 164.699 133.092,160.310 135.500,160.020 135.500 C 159.729 135.500,155.331 133.103,150.246 130.174 L 141.000 124.848 141.000 113.973 L 141.000 103.098 150.125 97.817 C 155.144 94.913,159.558 92.528,159.934 92.518 C 160.309 92.508,164.753 94.893,169.809 97.817 M209.809 97.817 L 219.000 103.135 219.000 113.966 L 219.000 124.798 209.774 130.149 C 204.699 133.092,200.310 135.500,200.020 135.500 C 199.729 135.500,195.331 133.103,190.246 130.174 L 181.000 124.848 181.000 113.973 L 181.000 103.098 190.125 97.817 C 195.144 94.913,199.558 92.528,199.934 92.518 C 200.309 92.508,204.753 94.893,209.809 97.817 M249.809 97.817 L 259.000 103.135 259.000 113.966 L 259.000 124.798 249.774 130.149 C 244.699 133.092,240.310 135.500,240.020 135.500 C 239.729 135.500,235.331 133.103,230.246 130.174 L 221.000 124.848 221.000 113.973 L 221.000 103.098 230.125 97.817 C 235.144 94.913,239.558 92.528,239.934 92.518 C 240.309 92.508,244.753 94.893,249.809 97.817 M289.809 97.817 L 299.000 103.135 299.000 113.966 L 299.000 124.798 289.774 130.149 C 284.699 133.092,280.310 135.500,280.020 135.500 C 279.729 135.500,275.331 133.103,270.246 130.174 L 261.000 124.848 261.000 113.973 L 261.000 103.098 270.125 97.817 C 275.144 94.913,279.558 92.528,279.934 92.518 C 280.309 92.508,284.753 94.893,289.809 97.817 M329.809 97.817 L 339.000 103.135 339.000 113.966 L 339.000 124.798 329.774 130.149 C 324.699 133.092,320.310 135.500,320.020 135.500 C 319.729 135.500,315.331 133.103,310.246 130.174 L 301.000 124.848 301.000 113.973 L 301.000 103.098 310.125 97.817 C 315.144 94.913,319.558 92.528,319.934 92.518 C 320.309 92.508,324.753 94.893,329.809 97.817 M369.772 97.809 L 379.000 103.118 379.000 113.961 L 379.000 124.804 369.746 130.152 C 364.656 133.093,360.260 135.500,359.977 135.500 C 359.693 135.500,355.308 133.105,350.231 130.179 L 341.000 124.858 341.000 113.979 L 341.000 103.100 350.125 97.812 C 355.144 94.903,359.541 92.518,359.897 92.512 C 360.252 92.505,364.696 94.889,369.772 97.809 M30.750 132.111 L 38.750 136.753 38.750 147.743 L 38.750 158.733 29.386 164.158 L 20.022 169.584 10.530 164.167 L 1.038 158.750 1.030 147.750 L 1.021 136.750 10.607 131.412 C 19.722 126.336,20.256 126.108,21.471 126.772 C 22.175 127.156,26.350 129.558,30.750 132.111 M69.500 131.399 L 78.750 136.768 78.750 147.750 L 78.750 158.733 69.386 164.158 L 60.022 169.584 50.523 164.167 L 41.023 158.750 41.137 147.777 L 41.250 136.805 50.500 131.415 C 55.587 128.451,59.862 126.027,60.000 126.028 C 60.138 126.030,64.412 128.447,69.500 131.399 M109.500 131.399 L 118.750 136.768 118.750 147.750 L 118.750 158.733 109.386 164.158 L 100.022 169.584 90.523 164.167 L 81.023 158.750 81.137 147.777 L 81.250 136.805 90.500 131.415 C 95.588 128.451,99.862 126.027,100.000 126.028 C 100.138 126.030,104.412 128.447,109.500 131.399 M149.500 131.416 L 158.750 136.806 158.750 147.769 L 158.750 158.733 149.386 164.158 L 140.022 169.584 130.523 164.167 L 121.023 158.750 121.137 147.759 L 121.250 136.767 130.500 131.399 C 135.588 128.446,139.863 126.030,140.000 126.028 C 140.137 126.027,144.412 128.451,149.500 131.416 M189.500 131.416 L 198.750 136.806 198.750 147.769 L 198.750 158.733 189.386 164.158 L 180.022 169.584 170.523 164.167 L 161.023 158.750 161.137 147.759 L 161.250 136.767 170.500 131.399 C 175.588 128.446,179.863 126.030,180.000 126.028 C 180.137 126.027,184.412 128.451,189.500 131.416 M229.500 131.416 L 238.750 136.806 238.750 147.769 L 238.750 158.733 229.386 164.158 L 220.022 169.584 210.523 164.167 L 201.023 158.750 201.137 147.759 L 201.250 136.767 210.500 131.399 C 215.588 128.446,219.863 126.030,220.000 126.028 C 220.137 126.027,224.412 128.451,229.500 131.416 M269.500 131.416 L 278.750 136.806 278.750 147.769 L 278.750 158.733 269.386 164.158 L 260.022 169.584 250.523 164.167 L 241.023 158.750 241.137 147.759 L 241.250 136.767 250.500 131.399 C 255.588 128.446,259.863 126.030,260.000 126.028 C 260.137 126.027,264.413 128.451,269.500 131.416 M309.500 131.416 L 318.750 136.806 318.750 147.769 L 318.750 158.733 309.386 164.158 L 300.022 169.584 290.523 164.167 L 281.023 158.750 281.137 147.759 L 281.250 136.767 290.500 131.399 C 295.587 128.446,299.863 126.030,300.000 126.028 C 300.137 126.027,304.413 128.451,309.500 131.416 M349.500 131.417 L 358.750 136.788 358.750 147.761 L 358.750 158.734 349.368 164.155 L 339.986 169.577 330.502 164.163 L 321.019 158.750 321.134 147.760 L 321.250 136.770 330.500 131.394 C 335.587 128.437,339.863 126.024,340.000 126.031 C 340.137 126.039,344.413 128.462,349.500 131.417 M389.569 131.375 L 398.990 136.750 398.870 147.743 L 398.750 158.735 389.368 164.156 L 379.986 169.577 370.502 164.163 L 361.019 158.750 361.134 147.760 L 361.250 136.770 370.500 131.394 C 375.587 128.437,379.839 126.014,379.949 126.009 C 380.058 126.004,384.387 128.419,389.569 131.375 M49.500 165.399 L 58.750 170.768 58.750 181.750 L 58.750 192.733 49.386 198.158 L 40.022 203.584 30.523 198.167 L 21.023 192.750 21.137 181.777 L 21.250 170.805 30.500 165.415 C 35.587 162.451,39.862 160.027,40.000 160.028 C 40.138 160.030,44.413 162.447,49.500 165.399 M89.500 165.399 L 98.750 170.768 98.750 181.750 L 98.750 192.733 89.386 198.158 L 80.022 203.584 70.523 198.167 L 61.023 192.750 61.137 181.777 L 61.250 170.805 70.500 165.415 C 75.588 162.451,79.862 160.027,80.000 160.028 C 80.138 160.030,84.412 162.447,89.500 165.399 M129.500 165.416 L 138.750 170.806 138.750 181.769 L 138.750 192.733 129.386 198.158 L 120.022 203.584 110.523 198.167 L 101.023 192.750 101.137 181.777 L 101.250 170.805 110.500 165.415 C 115.588 162.451,119.862 160.026,120.000 160.026 C 120.138 160.026,124.412 162.451,129.500 165.416 M169.500 165.416 L 178.750 170.806 178.750 181.769 L 178.750 192.733 169.386 198.158 L 160.022 203.584 150.523 198.167 L 141.023 192.750 141.137 181.777 L 141.250 170.805 150.500 165.415 C 155.588 162.451,159.863 160.026,160.000 160.026 C 160.137 160.026,164.412 162.451,169.500 165.416 M209.500 165.416 L 218.750 170.806 218.750 181.769 L 218.750 192.733 209.386 198.158 L 200.022 203.584 190.523 198.167 L 181.023 192.750 181.137 181.759 L 181.250 170.767 190.500 165.399 C 195.588 162.446,199.863 160.030,200.000 160.028 C 200.137 160.027,204.412 162.451,209.500 165.416 M249.500 165.416 L 258.750 170.806 258.750 181.769 L 258.750 192.733 249.386 198.158 L 240.022 203.584 230.523 198.167 L 221.023 192.750 221.137 181.759 L 221.250 170.767 230.500 165.399 C 235.588 162.446,239.863 160.030,240.000 160.028 C 240.137 160.027,244.412 162.451,249.500 165.416 M289.500 165.416 L 298.750 170.806 298.750 181.769 L 298.750 192.733 289.386 198.158 L 280.022 203.584 270.523 198.167 L 261.023 192.750 261.137 181.759 L 261.250 170.767 270.500 165.399 C 275.587 162.446,279.863 160.030,280.000 160.028 C 280.137 160.027,284.413 162.451,289.500 165.416 M329.500 165.417 L 338.750 170.788 338.750 181.760 L 338.750 192.733 329.380 198.162 L 320.010 203.591 310.514 198.170 L 301.019 192.750 301.134 181.759 L 301.250 170.767 310.500 165.399 C 315.587 162.446,319.863 160.034,320.000 160.038 C 320.137 160.042,324.413 162.462,329.500 165.417 M369.500 165.417 L 378.750 170.788 378.750 181.760 L 378.750 192.733 369.380 198.162 L 360.010 203.591 350.514 198.170 L 341.019 192.750 341.134 181.759 L 341.250 170.767 350.500 165.399 C 355.587 162.446,359.863 160.034,360.000 160.038 C 360.137 160.042,364.413 162.462,369.500 165.417 M29.746 199.348 L 39.000 204.696 39.000 215.549 L 39.000 226.403 29.822 231.701 C 24.775 234.616,20.355 237.000,20.000 237.000 C 19.645 237.000,15.225 234.616,10.178 231.701 L 1.000 226.403 1.000 215.503 L 1.000 204.604 10.375 199.321 C 15.531 196.415,19.917 194.029,20.121 194.019 C 20.325 194.008,24.656 196.407,29.746 199.348 M69.746 199.348 L 79.000 204.696 79.000 215.549 L 79.000 226.403 69.822 231.701 C 64.775 234.616,60.355 237.000,60.000 237.000 C 59.645 237.000,55.225 234.616,50.178 231.701 L 41.000 226.403 41.000 215.567 L 41.000 204.731 50.125 199.396 C 55.144 196.461,59.529 194.047,59.871 194.030 C 60.213 194.014,64.656 196.407,69.746 199.348 M109.746 199.348 L 119.000 204.696 119.000 215.549 L 119.000 226.403 109.822 231.701 C 104.775 234.616,100.355 237.000,100.000 237.000 C 99.645 237.000,95.225 234.616,90.178 231.701 L 81.000 226.403 81.000 215.567 L 81.000 204.731 90.125 199.396 C 95.144 196.461,99.529 194.047,99.871 194.030 C 100.213 194.014,104.656 196.407,109.746 199.348 M149.753 199.366 L 159.000 204.731 159.000 215.567 L 159.000 226.403 149.822 231.701 C 144.775 234.616,140.355 237.000,140.000 237.000 C 139.645 237.000,135.225 234.616,130.178 231.701 L 121.000 226.403 121.000 215.567 L 121.000 204.731 130.125 199.396 C 135.144 196.461,139.533 194.047,139.878 194.030 C 140.223 194.014,144.667 196.415,149.753 199.366 M189.753 199.366 L 199.000 204.731 199.000 215.567 L 199.000 226.403 189.822 231.701 C 184.775 234.616,180.355 237.000,180.000 237.000 C 179.645 237.000,175.225 234.616,170.178 231.701 L 161.000 226.403 161.000 215.549 L 161.000 204.696 170.125 199.380 C 175.144 196.456,179.533 194.050,179.878 194.032 C 180.223 194.014,184.667 196.415,189.753 199.366 M229.753 199.366 L 239.000 204.731 239.000 215.567 L 239.000 226.403 229.822 231.701 C 224.775 234.616,220.355 237.000,220.000 237.000 C 219.645 237.000,215.225 234.616,210.178 231.701 L 201.000 226.403 201.000 215.549 L 201.000 204.696 210.125 199.380 C 215.144 196.456,219.533 194.050,219.878 194.032 C 220.223 194.014,224.667 196.415,229.753 199.366 M269.753 199.366 L 279.000 204.731 279.000 215.567 L 279.000 226.403 269.822 231.701 C 264.775 234.616,260.355 237.000,260.000 237.000 C 259.645 237.000,255.225 234.616,250.178 231.701 L 241.000 226.403 241.000 215.549 L 241.000 204.696 250.125 199.380 C 255.144 196.456,259.533 194.050,259.878 194.032 C 260.223 194.014,264.667 196.415,269.753 199.366 M309.753 199.366 L 319.000 204.731 319.000 215.567 L 319.000 226.403 309.822 231.701 C 304.775 234.616,300.355 237.000,300.000 237.000 C 299.645 237.000,295.225 234.616,290.178 231.701 L 281.000 226.403 281.000 215.549 L 281.000 204.696 290.125 199.380 C 295.144 196.456,299.533 194.050,299.878 194.032 C 300.223 194.014,304.667 196.415,309.753 199.366 M349.712 199.355 L 359.000 204.711 359.000 215.557 L 359.000 226.403 349.822 231.701 C 344.775 234.616,340.350 237.000,339.988 237.000 C 339.627 237.000,335.207 234.619,330.166 231.708 L 321.000 226.416 321.000 215.556 L 321.000 204.696 330.125 199.380 C 335.144 196.456,339.514 194.050,339.837 194.032 C 340.160 194.014,344.604 196.410,349.712 199.355 M389.772 199.309 L 399.000 204.618 399.000 215.511 L 399.000 226.404 389.798 231.702 C 384.737 234.616,380.312 237.000,379.964 237.000 C 379.616 237.000,375.207 234.619,370.166 231.708 L 361.000 226.416 361.000 215.559 L 361.000 204.703 370.125 199.376 C 375.144 196.446,379.541 194.038,379.897 194.025 C 380.252 194.011,384.696 196.389,389.772 199.309 M49.753 233.366 L 59.000 238.731 59.000 249.567 L 59.000 260.403 49.822 265.701 C 44.775 268.616,40.355 271.000,40.000 271.000 C 39.645 271.000,35.225 268.616,30.178 265.701 L 21.000 260.403 21.000 249.556 L 21.000 238.709 30.125 233.395 C 35.144 230.473,39.533 228.063,39.878 228.041 C 40.223 228.018,44.667 230.415,49.753 233.366 M89.753 233.366 L 99.000 238.731 99.000 249.567 L 99.000 260.403 89.822 265.701 C 84.775 268.616,80.355 271.000,80.000 271.000 C 79.645 271.000,75.225 268.616,70.178 265.701 L 61.000 260.403 61.000 249.567 L 61.000 238.731 70.125 233.396 C 75.144 230.461,79.533 228.047,79.878 228.030 C 80.223 228.014,84.667 230.415,89.753 233.366 M129.753 233.366 L 139.000 238.731 139.000 249.567 L 139.000 260.403 129.822 265.701 C 124.775 268.616,120.355 271.000,120.000 271.000 C 119.645 271.000,115.225 268.616,110.178 265.701 L 101.000 260.403 101.000 249.567 L 101.000 238.731 110.125 233.396 C 115.144 230.461,119.533 228.047,119.878 228.030 C 120.223 228.014,124.667 230.415,129.753 233.366 M169.753 233.366 L 179.000 238.731 179.000 249.567 L 179.000 260.403 169.822 265.701 C 164.775 268.616,160.355 271.000,160.000 271.000 C 159.645 271.000,155.225 268.616,150.178 265.701 L 141.000 260.403 141.000 249.567 L 141.000 238.731 150.125 233.396 C 155.144 230.461,159.533 228.047,159.878 228.030 C 160.223 228.014,164.667 230.415,169.753 233.366 M209.753 233.366 L 219.000 238.731 219.000 249.567 L 219.000 260.403 209.822 265.701 C 204.775 268.616,200.355 271.000,200.000 271.000 C 199.645 271.000,195.225 268.616,190.178 265.701 L 181.000 260.403 181.000 249.567 L 181.000 238.731 190.125 233.396 C 195.144 230.461,199.533 228.047,199.878 228.030 C 200.223 228.014,204.667 230.415,209.753 233.366 M249.712 233.355 L 259.000 238.711 259.000 249.557 L 259.000 260.403 249.822 265.701 C 244.775 268.616,240.355 271.000,240.000 271.000 C 239.645 271.000,235.225 268.616,230.178 265.701 L 221.000 260.403 221.000 249.567 L 221.000 238.731 230.125 233.396 C 235.144 230.461,239.514 228.047,239.837 228.030 C 240.160 228.014,244.604 230.410,249.712 233.355 M289.712 233.355 L 299.000 238.711 299.000 249.557 L 299.000 260.403 289.822 265.701 C 284.775 268.616,280.350 271.000,279.988 271.000 C 279.627 271.000,275.207 268.619,270.166 265.708 L 261.000 260.416 261.000 249.556 L 261.000 238.696 270.125 233.380 C 275.144 230.456,279.514 228.050,279.837 228.032 C 280.160 228.014,284.604 230.410,289.712 233.355 M329.712 233.355 L 339.000 238.711 339.000 249.557 L 339.000 260.403 329.822 265.701 C 324.775 268.616,320.350 271.000,319.988 271.000 C 319.627 271.000,315.207 268.619,310.166 265.708 L 301.000 260.416 301.000 249.556 L 301.000 238.696 310.125 233.380 C 315.144 230.456,319.514 228.050,319.837 228.032 C 320.160 228.014,324.604 230.410,329.712 233.355 M369.712 233.355 L 379.000 238.711 379.000 249.557 L 379.000 260.403 369.822 265.701 C 364.775 268.616,360.350 271.000,359.988 271.000 C 359.627 271.000,355.207 268.619,350.166 265.708 L 341.000 260.416 341.000 249.556 L 341.000 238.696 350.125 233.380 C 355.144 230.456,359.514 228.050,359.837 228.032 C 360.160 228.014,364.604 230.410,369.712 233.355 M30.250 267.406 L 38.750 272.344 38.876 283.297 L 39.001 294.250 29.501 299.691 L 20.000 305.132 10.499 299.691 L 0.999 294.250 1.124 283.260 L 1.250 272.270 10.750 266.934 C 17.517 263.134,20.466 261.724,21.000 262.034 C 21.413 262.273,25.575 264.691,30.250 267.406 M69.750 267.145 L 78.750 272.391 78.876 283.321 L 79.001 294.250 69.501 299.691 L 60.000 305.132 50.499 299.691 L 40.999 294.250 41.124 283.322 L 41.250 272.393 50.500 266.974 C 55.587 263.994,59.975 261.632,60.250 261.727 C 60.525 261.821,64.800 264.259,69.750 267.145 M109.750 267.145 L 118.750 272.391 118.876 283.321 L 119.001 294.250 109.501 299.691 L 100.000 305.132 90.499 299.691 L 80.999 294.250 81.124 283.322 L 81.250 272.393 90.500 266.974 C 95.588 263.994,99.975 261.632,100.250 261.727 C 100.525 261.821,104.800 264.259,109.750 267.145 M149.750 267.145 L 158.750 272.391 158.876 283.321 L 159.001 294.250 149.501 299.691 L 140.000 305.132 130.499 299.691 L 120.999 294.250 121.124 283.322 L 121.250 272.393 130.500 266.974 C 135.588 263.994,139.975 261.632,140.250 261.727 C 140.525 261.821,144.800 264.259,149.750 267.145 M189.750 267.145 L 198.750 272.391 198.876 283.321 L 199.001 294.250 189.501 299.691 L 180.000 305.132 170.499 299.691 L 160.999 294.250 161.124 283.322 L 161.250 272.393 170.500 266.974 C 175.588 263.994,179.975 261.632,180.250 261.727 C 180.525 261.821,184.800 264.259,189.750 267.145 M229.750 267.145 L 238.750 272.391 238.876 283.321 L 239.001 294.250 229.501 299.691 L 220.000 305.132 210.499 299.691 L 200.999 294.250 201.124 283.322 L 201.250 272.393 210.500 266.974 C 215.588 263.994,219.975 261.632,220.250 261.727 C 220.525 261.821,224.800 264.259,229.750 267.145 M269.345 266.936 L 278.750 272.373 278.876 283.311 L 279.001 294.250 269.501 299.691 L 260.000 305.132 250.499 299.691 L 240.999 294.250 241.124 283.305 L 241.250 272.360 250.500 266.960 C 255.588 263.990,259.793 261.546,259.845 261.530 C 259.898 261.513,264.173 263.946,269.345 266.936 M309.345 266.936 L 318.750 272.373 318.876 283.311 L 319.001 294.250 309.496 299.694 L 299.991 305.137 290.492 299.694 L 280.993 294.250 281.122 283.305 L 281.250 272.360 290.500 266.960 C 295.587 263.990,299.793 261.546,299.845 261.530 C 299.898 261.513,304.173 263.946,309.345 266.936 M349.345 266.936 L 358.750 272.373 358.876 283.311 L 359.001 294.250 349.496 299.694 L 339.991 305.137 330.492 299.694 L 320.993 294.250 321.122 283.305 L 321.250 272.360 330.500 266.960 C 335.587 263.990,339.793 261.546,339.845 261.530 C 339.898 261.513,344.173 263.946,349.345 266.936 M389.500 266.916 L 398.750 272.266 398.876 283.258 L 399.001 294.250 389.496 299.694 L 379.991 305.137 370.492 299.694 L 360.993 294.250 361.122 283.305 L 361.250 272.360 370.500 266.960 C 375.587 263.990,379.863 261.561,380.000 261.563 C 380.137 261.564,384.413 263.973,389.500 266.916 M49.750 301.145 L 58.750 306.391 58.884 317.342 L 59.019 328.292 49.915 333.521 C 44.908 336.397,40.450 338.750,40.007 338.750 C 39.564 338.750,35.102 336.393,30.092 333.511 L 20.981 328.273 21.116 317.322 L 21.250 306.372 30.500 300.975 C 35.587 298.006,39.975 295.650,40.250 295.738 C 40.525 295.826,44.800 298.259,49.750 301.145 M89.750 301.145 L 98.750 306.391 98.884 317.342 L 99.019 328.292 89.915 333.521 C 84.908 336.397,80.450 338.750,80.007 338.750 C 79.564 338.750,75.102 336.393,70.092 333.511 L 60.981 328.273 61.116 317.333 L 61.250 306.393 70.500 300.974 C 75.588 297.994,79.975 295.632,80.250 295.727 C 80.525 295.821,84.800 298.259,89.750 301.145 M129.750 301.145 L 138.750 306.391 138.884 317.342 L 139.019 328.292 129.915 333.521 C 124.908 336.397,120.446 338.750,120.000 338.750 C 119.554 338.750,115.092 336.397,110.085 333.521 L 100.981 328.292 101.116 317.343 L 101.250 306.393 110.500 300.974 C 115.588 297.994,119.975 295.632,120.250 295.727 C 120.525 295.821,124.800 298.259,129.750 301.145 M169.750 301.145 L 178.750 306.391 178.884 317.332 L 179.019 328.273 169.908 333.511 C 164.898 336.393,160.436 338.750,159.993 338.750 C 159.550 338.750,155.092 336.397,150.085 333.521 L 140.981 328.292 141.116 317.343 L 141.250 306.393 150.500 300.974 C 155.588 297.994,159.975 295.632,160.250 295.727 C 160.525 295.821,164.800 298.259,169.750 301.145 M209.345 300.936 L 218.750 306.373 218.884 317.323 L 219.019 328.273 209.908 333.511 C 204.898 336.393,200.436 338.750,199.993 338.750 C 199.550 338.750,195.092 336.397,190.085 333.521 L 180.981 328.292 181.116 317.343 L 181.250 306.393 190.500 300.975 C 195.588 297.995,199.793 295.544,199.845 295.528 C 199.898 295.513,204.173 297.946,209.345 300.936 M249.345 300.936 L 258.750 306.373 258.884 317.323 L 259.019 328.273 249.908 333.511 C 244.898 336.393,240.436 338.750,239.993 338.750 C 239.550 338.750,235.092 336.397,230.085 333.521 L 220.981 328.292 221.116 317.343 L 221.250 306.393 230.500 300.975 C 235.588 297.995,239.793 295.544,239.845 295.528 C 239.898 295.513,244.173 297.946,249.345 300.936 M289.345 300.936 L 298.750 306.373 298.884 317.323 L 299.019 328.273 289.908 333.511 C 284.898 336.393,280.436 338.750,279.993 338.750 C 279.550 338.750,275.092 336.397,270.085 333.521 L 260.981 328.292 261.116 317.343 L 261.250 306.393 270.500 300.975 C 275.587 297.995,279.793 295.544,279.845 295.528 C 279.898 295.513,284.173 297.946,289.345 300.936 M329.345 300.936 L 338.750 306.373 338.884 317.323 L 339.019 328.273 329.932 333.511 C 324.935 336.393,320.563 338.819,320.218 338.903 C 319.873 338.987,315.403 336.626,310.286 333.657 L 300.982 328.258 301.116 317.309 L 301.250 306.360 310.500 300.960 C 315.587 297.990,319.793 295.546,319.845 295.530 C 319.898 295.513,324.173 297.946,329.345 300.936 M369.345 300.936 L 378.750 306.373 378.884 317.323 L 379.019 328.273 369.932 333.511 C 364.935 336.393,360.563 338.819,360.218 338.903 C 359.873 338.987,355.403 336.626,350.286 333.657 L 340.982 328.258 341.116 317.309 L 341.250 306.360 350.500 300.960 C 355.587 297.990,359.793 295.546,359.845 295.530 C 359.898 295.513,364.173 297.946,369.345 300.936 " stroke="none" fill="#000000" fill-rule="evenodd"></path></g></svg>